<svg width="26" height="32" viewBox="0 0 26 32" fill="none" xmlns="http://www.w3.org/2000/svg">
<path d="M25.0868 10.6619L25.5719 11.3909L24.8737 11.9178C23.8762 12.6704 22.0562 14.0433 22.0562 16.7629C22.0562 19.9838 24.1174 21.2226 25.1076 21.8183C25.5448 22.0813 25.9972 22.3524 25.9972 22.9455C25.9972 23.3327 22.9068 31.6472 18.419 31.6472C17.3209 31.6472 16.5447 31.3171 15.86 31.026C15.1672 30.7313 14.5696 30.4774 13.5821 30.4774C13.0815 30.4774 12.4486 30.7141 11.7784 30.9653C10.8627 31.3071 9.82614 31.6952 8.65001 31.6952H8.61919C3.90198 31.6681 0 22.0387 0 17.1346C0 9.12389 6.00941 7.37013 8.32539 7.37013C9.3691 7.37013 10.4836 7.78 11.4666 8.1427C12.1539 8.39571 12.8649 8.65689 13.2602 8.65689C13.4969 8.65689 14.0546 8.43471 14.547 8.23977C15.5971 7.82173 16.9038 7.30216 18.4254 7.30216C19.5706 7.30216 23.0156 7.55151 25.0868 10.6619ZM18.9008 0C19.0177 4.21423 16.0039 7.13787 12.9936 6.9545C12.4975 3.5914 16.0035 0 18.9008 0Z" fill="url(#paint0_linear_10_1566)"/>
<defs>
<linearGradient id="paint0_linear_10_1566" x1="25.5013" y1="38.0693" x2="-1.28108" y2="9.31088" gradientUnits="userSpaceOnUse">
<stop stop-color="white" stop-opacity="0.143193"/>
<stop offset="1" stop-color="white" stop-opacity="0.393165"/>
</linearGradient>
</defs>
</svg>
