<svg width="30" height="33" viewBox="0 0 30 33" fill="none" xmlns="http://www.w3.org/2000/svg">
<g style="mix-blend-mode:luminosity">
<path d="M29.9576 16.3405C29.9576 17.3617 29.3856 18.2605 28.555 18.7234L21.4742 22.6588L15.4827 16.3405L21.4742 10.0222L28.555 13.9575C29.3856 14.4205 29.9576 15.3192 29.9576 16.3405Z" fill="#BFB3FF"/>
<path d="M15.4826 16.3404L0.77617 31.8502C0.285957 31.36 0 30.6928 0 29.9574V2.72339C0 1.98807 0.285957 1.32084 0.77617 0.830627L15.4826 16.3404Z" fill="#8A73ED"/>
<path d="M15.4825 16.3405L21.474 22.6588C3.53629 32.4971 2.78463 33.9704 0.776123 31.8502L15.4825 16.3405Z" fill="#9580FA"/>
<path d="M21.474 10.0221L15.4825 16.3404L0.776123 0.830647C1.61765 -0.0585448 2.9671 -0.253268 4.04421 0.340434L21.474 10.0221Z" fill="#A996FF"/>
</g>
</svg>
