<svg width="36" height="36" viewBox="0 0 36 36" fill="none" xmlns="http://www.w3.org/2000/svg">
<circle cx="18" cy="18" r="18" fill="white"/>
<g clip-path="url(#clip0_10_1527)">
<path d="M17.5 7C11.7023 7 7 11.7014 7 17.5C7 22.1393 10.0082 26.075 14.1811 27.4636C14.7052 27.5607 14.875 27.2352 14.875 26.9587V25.004C11.9542 25.6393 11.3461 23.765 11.3461 23.765C10.8684 22.5514 10.1798 22.2285 10.1798 22.2285C9.22688 21.5766 10.2524 21.5906 10.2524 21.5906C11.3068 21.6641 11.8615 22.673 11.8615 22.673C12.7978 24.2778 14.3176 23.814 14.917 23.5454C15.0106 22.8673 15.2828 22.4035 15.5838 22.1419C13.2519 21.875 10.8001 20.9746 10.8001 16.9522C10.8001 15.8051 11.2105 14.8689 11.8816 14.1339C11.7731 13.8687 11.4135 12.8004 11.984 11.3549C11.984 11.3549 12.866 11.0731 14.8724 12.4311C15.7097 12.1984 16.6075 12.082 17.5 12.0776C18.3925 12.082 19.2911 12.1984 20.1302 12.4311C22.1349 11.0731 23.0151 11.3549 23.0151 11.3549C23.5865 12.8013 23.2269 13.8696 23.1184 14.1339C23.7921 14.8689 24.199 15.806 24.199 16.9522C24.199 20.9851 21.7429 21.8733 19.4049 22.1331C19.7811 22.4586 20.125 23.0974 20.125 24.0774V26.9587C20.125 27.2379 20.293 27.566 20.8259 27.4627C24.9952 26.0724 28 22.1375 28 17.5C28 11.7014 23.2986 7 17.5 7Z" fill="#2B2B39"/>
</g>
<defs>
<clipPath id="clip0_10_1527">
<rect width="21" height="21" fill="white" transform="translate(7 7)"/>
</clipPath>
</defs>
</svg>
